<?xml version="1.0" encoding="UTF-8"?>
<!DOCTYPE svg PUBLIC "-//W3C//DTD SVG 1.1//EN" "http://www.w3.org/Graphics/SVG/1.1/DTD/svg11.dtd">
<!-- Creator: CorelDRAW X7 -->
<svg xmlns="http://www.w3.org/2000/svg" xml:space="preserve" width="3.5in" height="0.65in" version="1.1" style="shape-rendering:geometricPrecision; text-rendering:geometricPrecision; image-rendering:optimizeQuality; fill-rule:evenodd; clip-rule:evenodd"
viewBox="0 0 3500 650"
 xmlns:xlink="http://www.w3.org/1999/xlink">
 <defs>
  <style type="text/css">
   <![CDATA[
    .fil2 {fill:#373435}
    .fil0 {fill:#7EC24D;fill-rule:nonzero}
    .fil1 {fill:#00593F;fill-rule:nonzero}
    .fil4 {fill:url(#id0);fill-rule:nonzero}
    .fil3 {fill:url(#id1);fill-rule:nonzero}
    .fil5 {fill:url(#id2);fill-rule:nonzero}
   ]]>
  </style>
  <linearGradient id="id0" gradientUnits="userSpaceOnUse" x1="2923.65" y1="625" x2="2923.65" y2="624.61">
   <stop offset="0" style="stop-opacity:1; stop-color:#00593F"/>
   <stop offset="0.45098" style="stop-opacity:1; stop-color:#00593F"/>
   <stop offset="1" style="stop-opacity:1; stop-color:#00593F"/>
  </linearGradient>
  <linearGradient id="id1" gradientUnits="userSpaceOnUse" xlink:href="#id0" x1="2416.98" y1="625" x2="2416.98" y2="624.61">
  </linearGradient>
  <linearGradient id="id2" gradientUnits="userSpaceOnUse" xlink:href="#id0" x1="3057.65" y1="625" x2="3057.65" y2="624.61">
  </linearGradient>
 </defs>
 <g id="Layer_x0020_1">
  <metadata id="CorelCorpID_0Corel-Layer"/>
  <g id="_377226968">
   <path class="fil0" d="M2267 153c-2,8 -5,20 -9,34 -5,21 -13,46 -23,75 -65,-35 -126,-47 -128,-48l-12 59c0,0 1,0 3,0 3,1 6,1 10,3 8,2 20,5 34,10 20,7 46,18 70,32 -34,77 -87,164 -165,230l0 74c114,-79 183,-195 224,-291 43,-101 57,-182 57,-183l2 -14c0,0 -69,-101 -283,-109l0 59c11,1 134,2 220,69z"/>
   <path class="fil1" d="M2047 84l0 -59c-214,8 -283,109 -283,109l2 14c0,1 13,82 57,183 41,96 110,212 224,291l0 -74c-78,-66 -131,-153 -166,-230 25,-14 50,-25 71,-32 14,-5 26,-8 34,-10 4,-2 7,-2 9,-3 3,0 3,0 3,0l-11 -59c-2,1 -63,13 -128,48 -10,-29 -18,-54 -23,-75 -4,-14 -7,-26 -9,-34 85,-67 209,-68 220,-69z"/>
   <path class="fil2" d="M332 170l0 307 -76 0 0 -307 76 0zm55 121l0 -55 -44 0 0 -66 77 0 44 44 0 99 -11 11 11 10 0 99 -43 44 -78 0 0 -65 44 -1 0 -55 -44 1 0 -66 1 0 0 0 43 0zm198 186l-77 0 66 -307 77 0 -66 307zm30 -87l6 0 -3 -15 19 -90 20 -89 60 281 -77 0 -5 -22 -34 0 14 -65zm354 -220l0 66 -55 0 0 -66 55 0zm-66 0l0 307 -76 0 0 -241 -66 0 0 -66 142 0zm319 0l0 66 -55 0 0 -66 55 0zm-66 0l0 307 -77 0 0 -241 -66 0 0 -66 143 0zm186 0l0 307 -76 0 0 -307 76 0zm11 307l0 -65 121 -1 0 66 -121 0zm242 -307l0 307 -77 0 0 -307 77 0zm11 66l0 -66 121 0 0 66 -121 0zm121 55l0 66 -121 0 0 -66 121 0zm-121 186l0 -65 121 -1 0 66 -121 0zm839 -307l0 307 -77 0 0 -307 77 0zm54 121l0 -55 -43 0 0 -66 77 0 43 44 0 99 -11 11 11 10 0 99 -43 44 -77 0 0 -65 43 -1 0 -55 -43 1 -1 -66 1 0 0 0 43 0zm198 -121l0 307 -77 0 0 -307 77 0zm253 0l0 66 -55 0 0 -66 55 0zm-66 0l0 307 -77 0 0 -241 -66 0 0 -66 143 0zm318 263l-44 44 -55 0 0 -65 22 0 0 -55 -22 0 0 -66 55 0 44 44 0 98zm-165 -76l-44 -44 1 -99 44 -44 55 0 0 66 -23 0 0 55 22 0 0 66 -55 0zm33 44l0 11 23 0 -1 65 -55 0 -44 -44 0 -32 77 0zm55 -154l0 -11 -22 0 0 -66 55 0 44 44 0 33 -77 0z"/>
   <g>
    <polygon class="fil1" points="2265,524 2320,524 2320,540 2284,540 2284,564 2318,564 2318,580 2284,580 2284,623 2265,623 "/>
    <path class="fil1" d="M2416 522c32,0 49,21 49,51 0,30 -17,52 -49,52 -31,0 -48,-21 -48,-52 0,-30 17,-51 48,-51zm0 87l0 0c21,0 28,-18 28,-36 0,-17 -8,-35 -28,-35 -19,0 -27,18 -27,35 0,18 7,36 27,36z"/>
    <path class="fil1" d="M2519 524l21 0c21,0 47,-1 47,27 0,12 -8,21 -21,23l0 0c6,1 9,6 11,10l16 39 -22 0 -12 -31c-3,-7 -6,-10 -14,-10l-7 0 0 41 -19 0 0 -99zm19 42l0 0 7 0c10,0 21,-1 21,-13 0,-12 -11,-13 -21,-13l-7 0 0 26z"/>
    <polygon class="fil1" points="2660,540 2631,540 2631,524 2708,524 2708,540 2680,540 2680,623 2660,623 "/>
    <polygon class="fil1" points="2758,524 2816,524 2816,540 2777,540 2777,564 2813,564 2813,580 2777,580 2777,608 2816,608 2816,623 2758,623 "/>
    <path class="fil1" d="M2951 543c-8,-3 -18,-5 -25,-5 -24,0 -36,16 -36,36 0,20 12,35 33,35 6,0 10,0 13,-1l0 -26 -21 0 0 -16 40 0 0 54c-10,3 -21,5 -32,5 -32,0 -54,-16 -54,-50 0,-34 21,-53 54,-53 12,0 21,2 29,4l-1 17z"/>
    <path class="fil1" d="M3057 522c31,0 49,21 49,51 0,30 -17,52 -49,52 -32,0 -49,-21 -49,-52 0,-30 18,-51 49,-51zm0 87l0 0c20,0 28,-18 28,-36 0,-17 -8,-35 -28,-35 -20,0 -28,18 -28,35 0,18 8,36 28,36z"/>
    <path class="fil3" d="M2418 625c-2,0 -4,0 -6,0 1,0 3,0 4,0 2,0 4,0 6,0 -1,0 -3,0 -4,0z"/>
    <path class="fil4" d="M2925 625c-3,0 -5,0 -7,0 2,0 3,0 5,0 2,0 4,0 6,0 -1,0 -3,0 -4,0z"/>
    <path class="fil5" d="M3058 625c-2,0 -4,0 -5,0 1,0 3,0 4,0 2,0 4,0 6,0 -2,0 -3,0 -5,0z"/>
   </g>
   <path class="fil2" d="M1133 545l0 25 21 0c2,0 3,0 4,-1 1,-1 1,-2 1,-3l0 -16c0,-2 0,-3 -1,-3 -1,-1 -2,-2 -4,-2l-21 0zm-10 -9l31 0c4,0 7,1 10,4 3,3 4,6 4,10l0 16c0,4 -1,7 -4,9 -3,3 -6,4 -10,4l-21 0 0 22c0,1 -1,3 -2,4 -1,1 -2,1 -3,1 -1,0 -2,0 -3,-1 -1,-1 -2,-3 -2,-4l0 -65zm76 24l0 5 8 -7c1,-1 2,-2 4,-2 1,-1 3,-1 4,-1l6 0c4,0 7,1 10,4 3,3 4,6 4,9l0 3c0,1 -1,2 -1,3 -1,1 -2,2 -4,2 -1,0 -2,-1 -3,-2 -1,-1 -1,-2 -1,-3l0 -3c0,-1 -1,-2 -2,-3 0,-1 -1,-1 -3,-1l-6 0c0,0 -1,0 -1,0 -1,1 -1,1 -2,1l-13 12 0 24c0,1 0,3 -1,4 -1,1 -2,1 -3,1 -2,0 -3,0 -4,-1 0,-1 -1,-3 -1,-4l0 -41c0,-1 1,-3 1,-4 1,0 2,-1 4,-1 1,0 2,1 3,1 1,1 1,3 1,4zm75 4c0,0 -1,0 -1,0 -1,1 -1,1 -2,1l-3 3c-1,1 -1,1 -2,2 0,0 0,1 0,2l0 6 26 0 0 -6c0,-1 0,-2 0,-2 0,-1 -1,-1 -1,-2l-4 -3c-1,0 -1,0 -1,-1 -1,0 -1,0 -2,0l-10 0zm0 -9l10 0c2,0 3,0 5,1 1,0 3,1 4,2l4 3c1,2 2,3 3,5 1,2 2,4 2,6l0 11c0,1 -1,2 -2,3 -1,1 -2,1 -4,1l-30 0 0 2c0,1 0,2 0,2 1,1 1,1 2,2l3 3c1,0 1,1 2,1 0,0 1,0 1,0l22 0c2,0 3,0 4,1 1,1 2,2 2,3 0,2 -1,3 -2,4 -1,1 -2,1 -4,1l-22 0c-1,0 -3,0 -4,-1 -2,0 -3,-1 -4,-2l-4 -3c-2,-2 -3,-3 -4,-5 -1,-2 -1,-4 -1,-6l0 -17c0,-2 0,-4 1,-6 1,-2 2,-3 4,-5l4 -3c1,-1 2,-2 4,-2 1,-1 3,-1 4,-1zm62 0l19 0c3,0 6,1 8,3 3,2 4,4 4,5 0,2 0,3 -1,4 -1,0 -2,1 -3,1 -2,0 -3,-1 -4,-2 -1,-1 -3,-2 -4,-2l-19 0c-1,0 -1,0 -2,1 0,0 0,1 0,2 0,0 0,1 0,1 0,1 1,1 1,1l25 11c2,1 4,2 6,5 1,2 2,5 2,7 0,4 -1,7 -4,10 -3,3 -6,4 -10,4l-17 0c-4,0 -6,-1 -9,-3 -3,-2 -4,-3 -4,-5 0,-2 0,-3 1,-3 1,-1 2,-2 3,-2 1,0 2,1 4,2 2,1 3,2 5,2l17 0c2,0 3,-1 4,-1 1,-1 1,-2 1,-4 0,-1 0,-1 -1,-2 0,-1 -1,-2 -2,-2l-24 -11c-2,-1 -4,-2 -6,-4 -1,-2 -1,-4 -1,-6 0,-3 1,-6 3,-9 2,-2 5,-3 8,-3zm72 9c-1,0 -1,0 -2,0 0,1 -1,1 -1,1l-4 3c-1,1 -1,1 -1,2 -1,0 -1,1 -1,2l0 6 27 0 0 -6c0,-1 0,-2 -1,-2 0,-1 0,-1 -1,-2l-4 -3c0,0 -1,0 -1,-1 -1,0 -1,0 -1,0l-10 0zm0 -9l10 0c1,0 3,0 4,1 2,0 3,1 4,2l4 3c2,2 3,3 4,5 1,2 1,4 1,6l0 11c0,1 -1,2 -1,3 -1,1 -3,1 -4,1l-31 0 0 2c0,1 0,2 1,2 0,1 0,1 1,2l4 3c0,0 1,1 1,1 1,0 1,0 2,0l22 0c1,0 3,0 4,1 0,1 1,2 1,3 0,2 -1,3 -1,4 -1,1 -3,1 -4,1l-22 0c-2,0 -3,0 -5,-1 -1,0 -3,-1 -4,-2l-4 -3c-1,-2 -3,-3 -3,-5 -1,-2 -2,-4 -2,-6l0 -17c0,-2 1,-4 2,-6 0,-2 2,-3 3,-5l4 -3c1,-1 3,-2 4,-2 2,-1 3,-1 5,-1zm58 5l0 3 5 -4 1 0c3,-3 7,-4 11,-4l4 0c4,0 8,1 10,4 2,3 3,7 4,13l1 29 0 0c0,2 -1,3 -2,4 -1,1 -2,1 -3,1 -1,0 -2,0 -3,-1 -1,-1 -1,-2 -1,-4l-2 -29c0,-3 0,-5 -1,-6 -1,-1 -2,-2 -4,-2l-3 0c-2,0 -4,1 -6,3l0 0 -11 7 0 27c0,1 0,3 -1,4 -1,1 -2,1 -3,1 -2,0 -3,0 -4,-1 -1,-1 -1,-3 -1,-4l0 -41c0,-1 0,-3 1,-4 1,0 2,-1 4,-1 1,0 2,1 3,2 1,0 1,2 1,3zm76 -15l0 10 17 0c1,0 3,0 4,1 0,1 1,2 1,4 0,1 -1,2 -2,3 0,1 -2,1 -3,1l-17 0 0 29c0,1 0,2 1,3 1,1 2,1 3,1l9 0c1,0 2,0 2,-1 1,0 2,-1 2,-2 0,0 0,-1 0,-1 1,-2 3,-4 5,-4 1,0 2,1 3,2 1,0 1,1 1,3 0,3 -1,6 -4,8 -2,3 -6,4 -9,4l-9 0c-4,0 -7,-1 -10,-4 -2,-3 -3,-6 -3,-9l0 -29 -4 0c-2,0 -3,0 -4,-1 -1,-1 -1,-2 -1,-3 0,-2 0,-3 1,-4 1,0 2,-1 4,-1l4 0 0 -10c0,-2 0,-3 1,-4 1,-1 2,-1 3,-1 1,0 2,0 3,1 1,1 2,2 2,4zm66 19c-1,0 -1,0 -2,0 0,1 -1,1 -1,1l-4 3c0,1 -1,1 -1,2 0,0 -1,1 -1,2l0 6 27 0 0 -6c0,-1 0,-2 0,-2 -1,-1 -1,-1 -2,-2l-4 -3c0,0 0,0 -1,-1 0,0 -1,0 -1,0l-10 0zm0 -9l10 0c1,0 3,0 4,1 2,0 3,1 4,2l4 3c2,2 3,3 4,5 1,2 1,4 1,6l0 11c0,1 0,2 -1,3 -1,1 -3,1 -4,1l-31 0 0 2c0,1 1,2 1,2 0,1 1,1 1,2l4 3c0,0 1,1 1,1 1,0 1,0 2,0l22 0c2,0 3,0 4,1 1,1 1,2 1,3 0,2 0,3 -1,4 -1,1 -3,1 -4,1l-22 0c-2,0 -3,0 -5,-1 -1,0 -3,-1 -4,-2l-4 -3c-1,-2 -2,-3 -3,-5 -1,-2 -2,-4 -2,-6l0 -17c0,-2 1,-4 2,-6 1,-2 2,-3 3,-5l4 -3c1,-1 3,-2 4,-2 2,-1 3,-1 5,-1zm66 9c-1,0 -2,1 -3,1 0,0 -1,0 -1,0l-3 3c0,0 0,1 -1,1 0,1 0,1 0,2l0 19c0,1 0,1 0,2 1,1 1,1 1,1l3 3c0,0 1,0 1,0 1,1 2,1 3,1l7 0c0,0 1,0 1,0 1,-1 1,-1 2,-1l7 -7c1,0 1,0 1,-1 0,0 1,-1 1,-2l0 -11c0,-1 -1,-2 -1,-2 0,-1 0,-1 -1,-1l-7 -7c-1,0 -1,0 -2,-1 0,0 -1,0 -1,0l-7 0zm28 -23l0 60c0,1 -1,3 -2,4 0,1 -2,1 -3,1 -1,0 -2,0 -3,-1 -1,-1 -1,-2 -1,-4l0 -1 -4 3c-1,1 -2,2 -4,2 -1,1 -3,1 -4,1l-7 0c-2,0 -3,0 -5,-1 -1,0 -3,-1 -4,-2l-3 -2c-2,-2 -3,-3 -4,-5 -1,-2 -1,-4 -1,-6l0 -19c0,-2 0,-4 1,-6 1,-2 2,-3 4,-4l3 -3c1,-1 3,-2 4,-2 1,-1 3,-1 5,-1l7 0c1,0 3,0 4,1 2,0 3,1 4,2l4 3 0 -20c0,-1 0,-3 1,-3 1,-1 2,-2 3,-2 1,0 3,1 3,1 1,1 2,3 2,4zm76 23c0,0 -1,0 -1,0 -1,1 -1,1 -2,1l-8 7c0,0 0,0 0,1 -1,0 -1,1 -1,2l0 11c0,1 0,2 1,2 0,1 0,1 0,1l8 7c1,0 1,0 2,1 0,0 1,0 1,0l7 0c1,0 1,0 2,0 0,0 1,-1 1,-1l3 -3c1,0 1,0 1,-1 0,-1 1,-1 1,-2l0 -19c0,-1 -1,-1 -1,-2 0,0 0,-1 -1,-1l-3 -3c0,0 -1,0 -1,-1 -1,0 -1,0 -2,0l-7 0zm-12 -23l0 20 4 -3c1,-1 2,-2 4,-2 1,-1 3,-1 4,-1l7 0c2,0 3,0 5,1 1,0 3,1 4,2l3 3c1,1 2,2 3,4 1,2 2,4 2,6l0 19c0,2 -1,4 -2,6 0,2 -2,3 -3,5l-3 2c-1,1 -3,2 -4,2 -2,1 -3,1 -5,1l-7 0c-1,0 -3,0 -4,-1 -2,0 -3,-1 -4,-2l-4 -3 0 1c0,1 0,3 -1,4 -1,1 -2,1 -3,1 -2,0 -3,0 -4,-1 0,-1 -1,-3 -1,-4l0 -60c0,-1 1,-3 1,-4 1,0 2,-1 4,-1 1,0 2,1 3,2 1,0 1,2 1,3zm67 19l0 6 12 27 3 0 11 -27 0 -6c0,-1 1,-3 2,-4 1,0 2,-1 3,-1 1,0 2,1 3,1 1,1 1,3 1,4l0 7c0,0 0,1 0,1 0,0 0,1 0,1l-23 54c-1,0 -1,1 -2,1 -1,1 -2,1 -3,1l-11 0c-2,0 -3,0 -4,-1 -1,-1 -1,-2 -1,-4 0,-1 0,-2 1,-3 1,-1 2,-1 4,-1l9 0 6 -14 -2 0c-1,0 -2,0 -3,0 0,-1 -1,-1 -1,-2l-14 -31c0,0 0,-1 0,-1 0,0 0,-1 0,-1l0 -7c0,-1 0,-3 1,-4 1,0 2,-1 3,-1 2,0 3,1 4,1 0,1 1,3 1,4z"/>
  </g>
 </g>
</svg>
